<svg width="38" height="31" viewBox="0 0 38 31" fill="none" xmlns="http://www.w3.org/2000/svg">
<path d="M18.9078 1.41806V13.9917H32.9789L29.723 10.732C29.4823 10.4918 29.336 10.1731 29.3107 9.83404C29.2853 9.49495 29.3827 9.15805 29.585 8.88474L29.723 8.72592C29.9633 8.48604 30.2818 8.34037 30.6204 8.31538C30.9591 8.2904 31.2955 8.38777 31.5684 8.58978L31.7272 8.72592L37.3939 14.3945C37.634 14.6346 37.7801 14.9529 37.8054 15.2915C37.8307 15.6302 37.7337 15.9667 37.5319 16.2399L37.3939 16.3987L31.7291 22.0767C31.4761 22.3287 31.1372 22.476 30.7803 22.489C30.4234 22.5021 30.0747 22.38 29.8039 22.1472C29.5331 21.9143 29.3601 21.5879 29.3196 21.2331C29.279 20.8782 29.3737 20.5212 29.585 20.2332L29.7211 20.0744L32.96 16.8279H18.9097L18.9078 29.5831C18.9076 29.79 18.8621 29.9944 18.7746 30.1819C18.687 30.3694 18.5595 30.5354 18.4009 30.6684C18.2424 30.8014 18.0566 30.898 17.8567 30.9516C17.6569 31.0052 17.4477 31.0143 17.2439 30.9785L1.17228 28.1404C0.843743 28.0826 0.546106 27.9108 0.3317 27.6552C0.117293 27.3997 -0.000156662 27.0767 1.56835e-07 26.7431V4.05759C5.00159e-06 3.72148 0.119391 3.3963 0.336869 3.14004C0.554347 2.88377 0.855777 2.71309 1.18741 2.65841L17.259 0.0188874C17.462 -0.0145796 17.6699 -0.00347415 17.8681 0.0514331C18.0664 0.10634 18.2504 0.203734 18.4072 0.336856C18.5641 0.469977 18.6901 0.635639 18.7766 0.822343C18.863 1.00905 18.9078 1.21232 18.9078 1.41806ZM12.2938 14.9277C11.7911 14.9277 11.309 15.1274 10.9535 15.4828C10.598 15.8383 10.3983 16.3205 10.3983 16.8232C10.3983 17.3259 10.598 17.808 10.9535 18.1635C11.309 18.519 11.7911 18.7187 12.2938 18.7187C12.7965 18.7187 13.2787 18.519 13.6342 18.1635C13.9896 17.808 14.1893 17.3259 14.1893 16.8232C14.1893 16.3205 13.9896 15.8383 13.6342 15.4828C13.2787 15.1274 12.7965 14.9277 12.2938 14.9277ZM20.7985 28.1688H22.245L22.4378 28.1555C22.7777 28.1089 23.0891 27.9407 23.3143 27.682C23.5396 27.4234 23.6635 27.0918 23.6631 26.7488L23.6498 18.713H20.7985V28.1688ZM20.8023 12.0934L20.7985 9.68265V2.6395H22.2072C22.5496 2.63946 22.8804 2.76329 23.1386 2.98815C23.3968 3.213 23.565 3.52369 23.612 3.86284L23.6253 4.05381L23.6385 12.0934H20.8023Z" fill="white"/>
</svg>
