<svg width="34" height="34" viewBox="0 0 34 34" fill="none" xmlns="http://www.w3.org/2000/svg">
<path d="M33.4888 14.0143L18.1541 0.383369C17.4725 -0.12779 16.6206 -0.12779 15.939 0.383369L0.604258 14.0143C-0.0772875 14.6958 -0.247674 15.7181 0.433871 16.3997C1.11542 17.0812 2.13774 17.2516 2.81928 16.5701L3.33044 15.8885V32.2456C3.33044 33.2679 4.01198 33.9495 5.0343 33.9495H28.8884C29.9107 33.9495 30.5923 33.2679 30.5923 32.2456V15.8885L31.1034 16.3997C31.785 17.0812 32.8073 16.9108 33.4888 16.2293C34.1704 15.7181 34.1704 14.5254 33.4888 14.0143ZM16.9613 15.207C19.5171 15.207 21.5618 17.2516 21.5618 19.8074C21.5618 22.3632 19.5171 24.4078 16.9613 24.4078C14.4056 24.4078 12.3609 22.3632 12.3609 19.8074C12.3609 17.2516 14.4056 15.207 16.9613 15.207ZM8.44203 30.5418C8.44203 30.3714 8.44203 30.3714 8.61242 30.201C12.3609 25.6005 19.1764 24.7486 23.7768 28.4971C24.4583 29.0083 24.9695 29.5194 25.4807 30.201C25.4807 30.201 25.4807 30.3714 25.6511 30.5418H8.44203Z" fill="white"/>
</svg>
