<svg width="35" height="32" viewBox="0 0 35 32" fill="none" xmlns="http://www.w3.org/2000/svg">
<path d="M12.1667 26.6667H3.33333C1.5 26.6667 0 25.1667 0 23.3333V3.33334C0 1.5 1.5 0 3.33333 0H13.3333L16.6667 3.33334H30C31.8333 3.33334 33.3333 4.83334 33.3333 6.66667V17.6667C31 16 28.1667 15 25 15C19.1667 15 14 18.5 11.8333 23.8333L11.3333 25L11.8333 26.1667C12 26.3334 12 26.5 12.1667 26.6667ZM35 25C33.5 28.8334 29.5 31.6667 25 31.6667C20.5 31.6667 16.5 28.8334 15 25C16.5 21.1667 20.5 18.3333 25 18.3333C29.5 18.3333 33.5 21.1667 35 25ZM29.1667 25C29.1667 22.6667 27.3333 20.8333 25 20.8333C22.6667 20.8333 20.8333 22.6667 20.8333 25C20.8333 27.3334 22.6667 29.1667 25 29.1667C27.3333 29.1667 29.1667 27.3334 29.1667 25ZM25 23.3333C24 23.3333 23.3333 24 23.3333 25C23.3333 26 24 26.6667 25 26.6667C26 26.6667 26.6667 26 26.6667 25C26.6667 24 26 23.3333 25 23.3333Z" fill="white"/>
</svg>
