<svg width="57" height="66" viewBox="0 0 57 66" fill="none" xmlns="http://www.w3.org/2000/svg">
<path d="M28.2857 66C24.3571 66 20.6779 65.2541 17.248 63.7623C13.8181 62.2705 10.8324 60.2538 8.29086 57.7123C5.74933 55.1708 3.73267 52.185 2.24086 48.7551C0.749048 45.3252 0.00209524 41.645 0 37.7143H6.28571C6.28571 43.8429 8.42076 49.0422 12.6909 53.3123C16.961 57.5824 22.1592 59.7164 28.2857 59.7143C34.4143 59.7143 39.6136 57.5803 43.8837 53.3123C48.1538 49.0443 50.2878 43.845 50.2857 37.7143C50.2857 31.5857 48.1517 26.3874 43.8837 22.1194C39.6157 17.8514 34.4164 15.7164 28.2857 15.7143H27.8143L32.6857 20.5857L28.2857 25.1429L15.7143 12.5714L28.2857 0L32.6857 4.55714L27.8143 9.42857H28.2857C32.2143 9.42857 35.8946 10.1755 39.3266 11.6694C42.7586 13.1633 45.7443 15.18 48.2837 17.7194C50.8231 20.2589 52.8398 23.2446 54.3337 26.6766C55.8276 30.1086 56.5735 33.7878 56.5714 37.7143C56.5714 41.6429 55.8255 45.3231 54.3337 48.7551C52.8419 52.1871 50.8252 55.1729 48.2837 57.7123C45.7422 60.2517 42.7565 62.2684 39.3266 63.7623C35.8967 65.2562 32.2164 66.0021 28.2857 66Z" fill="white"/>
</svg>
