<svg width="63" height="52" viewBox="0 0 63 52" fill="none" xmlns="http://www.w3.org/2000/svg">
<path d="M31.5052 2.36285V23.3138H54.9513L49.5261 17.8823C49.1251 17.482 48.8813 16.951 48.8391 16.386C48.7969 15.821 48.9591 15.2597 49.2961 14.8042L49.5261 14.5396C49.9266 14.1399 50.4572 13.8972 51.0215 13.8555C51.5857 13.8139 52.1462 13.9762 52.601 14.3128L52.8657 14.5396L62.3078 23.9849C62.7079 24.3849 62.9512 24.9153 62.9934 25.4796C63.0356 26.0439 62.8739 26.6046 62.5377 27.0598L62.3078 27.3244L52.8688 36.7854C52.4472 37.2053 51.8826 37.4507 51.2879 37.4725C50.6932 37.4942 50.1122 37.2908 49.661 36.9029C49.2097 36.5149 48.9215 35.9709 48.8539 35.3797C48.7862 34.7885 48.9442 34.1935 49.2961 33.7136L49.523 33.449L54.9198 28.0396H31.5083L31.5052 49.293C31.5049 49.6378 31.4291 49.9783 31.2832 50.2907C31.1373 50.6031 30.9248 50.8798 30.6606 51.1014C30.3964 51.323 30.0869 51.484 29.7539 51.5733C29.4208 51.6625 29.0723 51.6778 28.7327 51.618L1.95332 46.8891C1.40589 46.7928 0.909952 46.5065 0.552696 46.0807C0.19544 45.6549 -0.000261038 45.1167 2.61326e-07 44.5609V6.76098C8.33392e-06 6.20094 0.198936 5.6591 0.56131 5.2321C0.923683 4.8051 1.42594 4.52069 1.97852 4.42959L28.7579 0.0314712C29.0962 -0.0242934 29.4425 -0.00578882 29.7729 0.0857006C30.1033 0.17719 30.4098 0.339473 30.6712 0.561288C30.9325 0.783102 31.1425 1.05914 31.2865 1.37023C31.4306 1.68133 31.5052 2.02004 31.5052 2.36285ZM20.4847 24.8733C19.647 24.8733 18.8436 25.2061 18.2513 25.7984C17.659 26.3907 17.3263 27.194 17.3263 28.0317C17.3263 28.8694 17.659 29.6727 18.2513 30.265C18.8436 30.8573 19.647 31.1901 20.4847 31.1901C21.3223 31.1901 22.1257 30.8573 22.718 30.265C23.3103 29.6727 23.643 28.8694 23.643 28.0317C23.643 27.194 23.3103 26.3907 22.718 25.7984C22.1257 25.2061 21.3223 24.8733 20.4847 24.8733ZM34.6557 46.9364H37.0658L37.3872 46.9143C37.9534 46.8366 38.4723 46.5563 38.8476 46.1253C39.223 45.6943 39.4294 45.1419 39.4287 44.5703L39.4067 31.1806H34.6557V46.9364ZM34.662 20.1507L34.6557 16.1338V4.39809H37.0028C37.5733 4.39801 38.1246 4.60435 38.5549 4.97901C38.9851 5.35368 39.2653 5.87136 39.3436 6.43647L39.3657 6.75468L39.3877 20.1507H34.662Z" fill="white"/>
</svg>
