<svg width="15" height="14" viewBox="0 0 15 14" fill="none" xmlns="http://www.w3.org/2000/svg">
<path d="M7 1.27273C8.51896 1.27273 9.97572 1.87613 11.0498 2.95021C12.1239 4.02428 12.7273 5.48103 12.7273 7C12.7273 8.561 12.1036 9.97564 11.0899 11.0091C10.5574 11.554 9.92119 11.9868 9.21875 12.2819C8.51632 12.577 7.7619 12.7284 7 12.7273C6.24788 12.7273 5.50313 12.5791 4.80827 12.2913C4.1134 12.0035 3.48203 11.5816 2.95021 11.0498C2.41838 10.518 1.99651 9.8866 1.70869 9.19173C1.42087 8.49687 1.27273 7.75212 1.27273 7C1.27273 6.24789 1.42087 5.50313 1.70869 4.80827C1.99651 4.1134 2.41838 3.48203 2.95021 2.95021C3.48203 2.41838 4.1134 1.99651 4.80827 1.70869C5.50313 1.42087 6.24788 1.27273 7 1.27273ZM11.0256 12.7273C11.3756 12.481 11.7008 12.2042 11.9993 11.9C13.2837 10.5927 14.0023 8.83267 14 7C14 3.13409 10.8659 0 7 0C3.13409 0 0 3.13409 0 7C0 10.8659 3.13409 14 7 14H14.6364V12.7273H11.0256ZM7 3.18182C6.83122 3.18182 6.66936 3.24886 6.55002 3.36821C6.43068 3.48755 6.36363 3.64941 6.36363 3.81818C6.36363 3.98696 6.43068 4.14882 6.55002 4.26816C6.66936 4.3875 6.83122 4.45455 7 4.45455C7.16877 4.45455 7.33063 4.3875 7.44997 4.26816C7.56932 4.14882 7.63636 3.98696 7.63636 3.81818C7.63636 3.64941 7.56932 3.48755 7.44997 3.36821C7.33063 3.24886 7.16877 3.18182 7 3.18182ZM5.09091 3.81818C5.09091 3.31186 5.29204 2.82628 5.65007 2.46825C6.00809 2.11023 6.49368 1.90909 7 1.90909C7.50632 1.90909 7.99191 2.11023 8.34993 2.46825C8.70795 2.82628 8.90909 3.31186 8.90909 3.81818C8.90909 4.3245 8.70795 4.81009 8.34993 5.16811C7.99191 5.52614 7.50632 5.72727 7 5.72727C6.49368 5.72727 6.00809 5.52614 5.65007 5.16811C5.29204 4.81009 5.09091 4.3245 5.09091 3.81818ZM3.81818 6.36364C3.64941 6.36364 3.48755 6.43068 3.3682 6.55002C3.24886 6.66937 3.18182 6.83123 3.18182 7C3.18182 7.16878 3.24886 7.33064 3.3682 7.44998C3.48755 7.56932 3.64941 7.63637 3.81818 7.63637C3.98695 7.63637 4.14882 7.56932 4.26816 7.44998C4.3875 7.33064 4.45454 7.16878 4.45454 7C4.45454 6.83123 4.3875 6.66937 4.26816 6.55002C4.14882 6.43068 3.98695 6.36364 3.81818 6.36364ZM1.90909 7C1.90909 6.7493 1.95847 6.50105 2.05441 6.26942C2.15035 6.0378 2.29097 5.82735 2.46825 5.65007C2.64553 5.47279 2.85598 5.33217 3.0876 5.23623C3.31922 5.14029 3.56748 5.09091 3.81818 5.09091C4.06889 5.09091 4.31714 5.14029 4.54876 5.23623C4.78038 5.33217 4.99084 5.47279 5.16811 5.65007C5.34539 5.82735 5.48601 6.0378 5.58195 6.26942C5.67789 6.50105 5.72727 6.7493 5.72727 7C5.72727 7.50632 5.52614 7.99191 5.16811 8.34993C4.81009 8.70796 4.3245 8.90909 3.81818 8.90909C3.31186 8.90909 2.82627 8.70796 2.46825 8.34993C2.11023 7.99191 1.90909 7.50632 1.90909 7ZM10.1818 6.36364C10.013 6.36364 9.85118 6.43068 9.73184 6.55002C9.6125 6.66937 9.54545 6.83123 9.54545 7C9.54545 7.16878 9.6125 7.33064 9.73184 7.44998C9.85118 7.56932 10.013 7.63637 10.1818 7.63637C10.3506 7.63637 10.5125 7.56932 10.6318 7.44998C10.7511 7.33064 10.8182 7.16878 10.8182 7C10.8182 6.83123 10.7511 6.66937 10.6318 6.55002C10.5125 6.43068 10.3506 6.36364 10.1818 6.36364ZM8.27273 7C8.27273 6.49368 8.47386 6.00809 8.83188 5.65007C9.18991 5.29205 9.67549 5.09091 10.1818 5.09091C10.6881 5.09091 11.1737 5.29205 11.5317 5.65007C11.8898 6.00809 12.0909 6.49368 12.0909 7C12.0909 7.50632 11.8898 7.99191 11.5317 8.34993C11.1737 8.70796 10.6881 8.90909 10.1818 8.90909C9.67549 8.90909 9.18991 8.70796 8.83188 8.34993C8.47386 7.99191 8.27273 7.50632 8.27273 7ZM7 9.54546C6.83122 9.54546 6.66936 9.6125 6.55002 9.73184C6.43068 9.85118 6.36363 10.013 6.36363 10.1818C6.36363 10.3506 6.43068 10.5125 6.55002 10.6318C6.66936 10.7511 6.83122 10.8182 7 10.8182C7.16877 10.8182 7.33063 10.7511 7.44997 10.6318C7.56932 10.5125 7.63636 10.3506 7.63636 10.1818C7.63636 10.013 7.56932 9.85118 7.44997 9.73184C7.33063 9.6125 7.16877 9.54546 7 9.54546ZM5.09091 10.1818C5.09091 9.6755 5.29204 9.18991 5.65007 8.83189C6.00809 8.47386 6.49368 8.27273 7 8.27273C7.50632 8.27273 7.99191 8.47386 8.34993 8.83189C8.70795 9.18991 8.90909 9.6755 8.90909 10.1818C8.90909 10.6881 8.70795 11.1737 8.34993 11.5318C7.99191 11.8898 7.50632 12.0909 7 12.0909C6.49368 12.0909 6.00809 11.8898 5.65007 11.5318C5.29204 11.1737 5.09091 10.6881 5.09091 10.1818Z" fill="white"/>
</svg>
